<?xml version="1.0" standalone="no"?>
<!DOCTYPE svg PUBLIC "-//W3C//DTD SVG 20010904//EN"
 "http://www.w3.org/TR/2001/REC-SVG-20010904/DTD/svg10.dtd">
<svg version="1.0" xmlns="http://www.w3.org/2000/svg"
 width="16.000000pt" height="16.000000pt" viewBox="0 0 16.000000 16.000000"
 preserveAspectRatio="xMidYMid meet">
<metadata>
Created by potrace 1.11, written by Peter Selinger 2001-2013
</metadata>
<g transform="translate(0.000000,16.000000) scale(0.005333,-0.005333)"
fill="#000000" stroke="none">
<path d="M1311 2934 c13 -16 12 -16 -9 -5 -13 7 -28 10 -35 7 -7 -2 -5 -5 5
-5 21 -1 32 -17 13 -19 -8 -1 -21 -3 -29 -4 -7 -1 -11 -9 -9 -19 3 -9 0 -20
-6 -23 -7 -5 -8 -1 -4 10 4 12 3 15 -5 10 -7 -4 -12 -14 -12 -22 0 -8 -5 -14
-11 -14 -5 0 -7 5 -3 12 4 7 3 8 -4 4 -9 -5 -9 -13 -2 -27 10 -18 6 -23 -14
-20 -5 1 -6 -6 -2 -15 5 -14 4 -15 -8 -5 -12 10 -14 9 -9 -8 3 -12 10 -18 16
-14 6 3 7 1 3 -6 -4 -6 -11 -9 -16 -6 -4 3 -11 -2 -14 -11 -8 -21 -8 -24 5
-24 5 0 8 4 5 8 -3 5 2 9 11 9 12 0 11 -5 -7 -19 -12 -10 -19 -18 -15 -18 4 0
1 -8 -6 -17 -8 -10 -9 -14 -2 -10 6 4 14 3 17 -2 4 -5 -2 -12 -11 -14 -17 -4
-17 -5 0 -6 10 0 17 -7 14 -13 -2 -7 0 -21 5 -31 6 -12 5 -16 -3 -15 -6 2 -14
-3 -17 -11 -2 -8 0 -11 6 -7 5 3 13 -1 16 -10 3 -8 2 -13 -2 -10 -4 3 -14 -5
-22 -17 -12 -20 -11 -21 2 -9 13 10 17 10 22 -3 3 -9 2 -14 -3 -11 -5 3 -12
-1 -15 -10 -9 -24 -7 -28 8 -15 11 9 16 9 22 0 4 -7 3 -10 -2 -6 -5 3 -18 -2
-29 -10 -20 -15 -20 -15 3 -10 l22 5 -22 -31 -22 -32 24 20 23 20 -11 -22 c-7
-12 -15 -23 -19 -25 -5 -3 -2 -3 5 -2 6 2 12 -1 12 -6 0 -6 -4 -10 -10 -10 -5
0 -10 -5 -10 -11 0 -5 5 -7 11 -4 6 4 9 0 7 -11 -2 -13 2 -18 12 -16 11 3 10
-2 -4 -17 -17 -19 -18 -21 -2 -27 13 -5 15 -9 5 -15 -10 -6 -10 -11 2 -25 13
-16 12 -16 -8 -4 -15 10 -19 18 -12 26 6 8 5 13 -4 17 -10 4 -13 -2 -11 -21 1
-15 8 -28 13 -30 6 -2 8 -9 4 -15 -11 -17 -12 -68 -2 -61 4 2 6 12 3 22 -5 14
-4 14 4 3 7 -10 4 -22 -11 -43 -23 -30 -32 -36 -24 -14 7 18 -27 28 -44 12 -9
-8 -10 -8 -5 2 4 6 2 12 -3 12 -6 0 -11 5 -11 11 0 5 6 7 13 3 8 -5 8 -2 -2 9
-15 18 -26 23 -16 7 3 -5 -1 -10 -10 -10 -9 0 -14 3 -12 8 3 4 -2 14 -11 22
-14 13 -15 12 -9 -5 7 -19 6 -19 -7 -2 -7 9 -19 17 -25 17 -7 0 -9 5 -5 13 4
6 -3 3 -17 -8 -22 -19 -23 -19 -9 -1 14 18 13 19 -5 13 l-20 -7 20 16 c16 13
16 15 3 11 -11 -4 -21 0 -27 11 -6 10 -11 12 -11 5 0 -7 -8 -13 -17 -13 -15 0
-16 2 -3 10 12 8 9 10 -13 10 -16 0 -26 4 -22 10 3 6 1 10 -5 10 -6 0 -9 4 -6
8 3 5 -1 9 -9 9 -11 0 -12 -4 -4 -13 7 -8 6 -14 -2 -20 -8 -4 -9 -3 -5 4 4 7
1 12 -8 12 -9 0 -15 3 -15 8 4 22 -4 30 -26 27 -14 -1 -28 2 -31 7 -3 4 -10 5
-16 2 -7 -4 -8 -2 -4 5 4 6 12 8 18 5 6 -4 8 -2 5 4 -4 5 -18 9 -32 7 -31 -3
-32 3 -2 16 20 8 19 9 -6 4 -26 -5 -28 -4 -22 17 7 23 7 23 -9 3 -12 -15 -16
-17 -16 -5 -1 10 -4 9 -11 -5 -7 -16 -8 -12 -5 15 3 19 2 29 -1 23 -7 -18 -21
-16 -41 4 -16 16 -17 15 -21 -2 -2 -13 -5 -14 -11 -5 -7 11 -129 21 -128 10 1
-19 -4 -29 -18 -34 -14 -5 -15 -4 -5 8 8 10 9 16 1 21 -6 4 -10 3 -9 -2 5 -19
-14 -41 -31 -38 -10 2 -25 -4 -32 -13 -10 -12 -10 -14 -1 -8 7 4 13 3 13 -2 0
-17 -13 -22 -28 -9 -13 10 -14 9 -4 -10 7 -12 17 -24 24 -27 7 -3 2 -3 -11 0
-13 4 -21 2 -18 -3 8 -13 -42 -65 -55 -57 -7 4 -8 2 -4 -5 4 -6 11 -9 15 -7 4
3 8 -1 8 -9 0 -11 -5 -12 -21 -3 -12 6 -18 7 -14 3 11 -12 -12 -36 -26 -28 -6
4 -5 0 2 -9 9 -12 10 -18 2 -23 -8 -5 -7 -11 2 -23 11 -13 10 -14 -9 -4 -19
11 -21 9 -18 -14 2 -19 -1 -24 -13 -19 -12 4 -13 3 -2 -10 12 -15 11 -16 -10
-19 -5 0 -10 -5 -9 -10 0 -5 -5 -12 -12 -17 -7 -4 -14 -15 -15 -23 -1 -9 2
-14 7 -10 5 3 7 9 4 14 -3 4 2 11 11 14 8 3 12 10 9 16 -10 16 1 11 16 -7 8
-9 9 -14 3 -10 -7 4 -15 0 -18 -9 -9 -23 -8 -26 7 -18 9 6 9 4 -1 -8 -9 -12
-10 -18 -2 -23 8 -5 8 -10 0 -20 -8 -9 -8 -15 0 -20 14 -9 13 -22 -3 -28 -10
-4 -13 7 -12 43 1 38 -2 47 -13 43 -11 -5 -11 -7 0 -14 10 -7 10 -9 -2 -9 -13
0 -13 -1 0 -10 13 -9 13 -10 0 -10 -13 0 -13 -1 0 -10 13 -9 13 -10 0 -10 -13
0 -13 -1 0 -10 13 -9 13 -10 0 -10 -13 0 -13 -2 -1 -9 13 -8 13 -12 0 -28 -12
-16 -12 -17 2 -6 12 10 18 10 27 1 16 -16 15 -31 -1 -22 -9 6 -9 4 1 -8 7 -9
23 -15 34 -13 20 4 20 4 2 -18 -11 -12 -12 -17 -4 -11 18 13 52 15 44 2 -3 -5
-10 -5 -16 -2 -6 4 -8 2 -4 -4 3 -5 0 -13 -6 -16 -7 -2 -2 -4 12 -3 17 1 24
-3 22 -12 -3 -12 0 -12 13 -1 13 11 15 10 9 -3 -4 -12 -1 -14 15 -10 20 5 27
-5 21 -32 -1 -5 4 -4 11 3 16 15 29 16 29 1 0 -5 -4 -7 -10 -4 -5 3 -10 1 -10
-4 0 -14 13 -14 26 -1 6 6 15 5 24 -1 13 -9 12 -10 -3 -5 -9 3 -17 1 -17 -4 0
-9 38 -15 63 -11 4 0 7 -4 7 -10 0 -6 -9 -8 -22 -4 -20 5 -21 5 -5 -5 10 -7
25 -9 32 -6 8 3 17 0 21 -6 5 -7 2 -8 -6 -3 -9 5 -11 4 -6 -4 6 -8 12 -9 20
-2 16 13 29 2 17 -13 -6 -8 2 -11 26 -11 27 0 37 -5 39 -18 3 -23 24 -48 34
-42 5 3 11 0 13 -5 3 -6 4 -5 3 2 -2 7 -9 12 -15 10 -7 -1 -9 2 -5 9 4 7 3 9
-3 6 -5 -3 -10 1 -10 10 0 11 8 7 27 -14 15 -16 34 -29 44 -27 14 2 15 0 5
-12 -13 -16 -5 -18 20 -5 13 7 18 6 18 -4 0 -8 -4 -12 -8 -9 -4 2 -11 -1 -15
-7 -4 -8 -3 -9 4 -5 7 4 12 1 12 -6 0 -8 5 -6 11 5 5 9 15 17 21 17 7 0 7 -5
-1 -14 -9 -11 -9 -16 0 -22 7 -4 9 -3 6 3 -4 6 0 13 8 16 9 4 12 1 9 -7 -3 -8
0 -17 7 -22 8 -5 10 -3 4 5 -6 10 -3 11 14 2 23 -13 29 -23 7 -15 -9 4 -13 -2
-11 -20 2 -15 -1 -24 -6 -20 -5 3 -7 9 -4 14 3 5 0 12 -7 16 -7 4 -10 4 -6 -1
4 -4 -2 -17 -15 -28 l-22 -19 25 6 c22 6 23 5 7 -4 -10 -7 -28 -10 -39 -7 -14
4 -22 0 -25 -14 -3 -10 -10 -19 -15 -19 -5 0 -7 -4 -4 -9 4 -5 -3 -7 -14 -4
-11 3 -20 0 -20 -6 0 -6 -3 -10 -7 -10 -26 4 -42 -3 -37 -15 3 -8 0 -17 -7
-22 -7 -4 -10 -3 -6 3 4 6 0 13 -8 16 -9 4 -12 1 -8 -9 4 -10 -3 -14 -21 -15
-35 -2 -39 -3 -55 -13 -12 -8 -11 -11 3 -21 14 -11 14 -12 -9 -12 -14 0 -22 4
-18 10 3 6 -5 2 -19 -9 -14 -10 -24 -21 -22 -23 2 -2 10 2 18 8 11 9 16 9 22
-1 4 -7 4 -10 -1 -6 -4 4 -17 1 -29 -7 -27 -20 -37 -19 -29 3 5 14 3 13 -10
-3 -8 -11 -13 -23 -11 -27 2 -4 -1 -10 -7 -14 -7 -4 -9 -3 -5 4 4 6 -1 10 -13
9 -15 -1 -17 -4 -9 -14 15 -18 3 -16 -17 3 -14 15 -15 13 -11 -17 3 -19 3 -28
0 -21 -3 6 -12 12 -20 12 -9 0 -13 -4 -10 -9 3 -5 -4 -11 -15 -14 -14 -4 -18
-10 -13 -19 6 -11 5 -11 -8 0 -13 10 -15 9 -12 -13 2 -21 0 -24 -11 -15 -10 8
-15 8 -21 -1 -4 -7 -3 -9 3 -6 6 4 13 -2 16 -13 4 -17 2 -18 -15 -9 -18 10
-19 9 -8 -11 9 -18 9 -21 0 -15 -8 5 -11 3 -8 -6 3 -8 12 -13 19 -11 9 2 7 -4
-5 -17 -18 -19 -15 -26 8 -22 5 1 4 -4 -2 -12 -7 -8 -9 -16 -6 -20 3 -3 -1 -4
-10 -3 -8 1 -19 6 -23 11 -4 4 -3 5 4 2 7 -5 10 -1 8 10 -1 10 2 23 7 29 9 12
-20 30 -30 19 -3 -3 0 -5 6 -5 7 0 12 -5 12 -11 0 -5 -4 -8 -8 -5 -4 2 -8 -11
-8 -29 0 -18 3 -33 6 -33 19 2 30 -3 26 -11 -4 -5 0 -12 6 -14 10 -4 10 -6 1
-6 -7 -1 -13 -6 -13 -12 0 -5 4 -8 8 -5 13 8 11 -28 -2 -37 -6 -5 1 -7 17 -4
26 4 27 3 11 -14 -15 -17 -15 -18 12 -13 28 5 28 4 9 -10 -11 -8 -24 -12 -29
-9 -5 4 -6 1 -2 -6 6 -8 12 -9 20 -2 10 8 16 4 25 -17 10 -25 10 -26 -4 -8 -8
11 -15 15 -15 8 0 -7 9 -17 20 -24 11 -7 20 -16 20 -21 0 -4 -4 -5 -10 -2 -6
3 -7 -1 -3 -10 4 -11 8 -13 13 -5 3 6 14 8 24 4 14 -5 15 -9 4 -16 -10 -8 -11
-11 0 -15 10 -4 10 -8 0 -20 -11 -14 -10 -15 12 -10 14 4 19 4 13 1 -18 -8
-16 -27 1 -21 10 4 13 1 10 -8 -3 -7 3 -16 15 -20 12 -3 21 -13 21 -21 0 -10
5 -12 12 -8 8 5 7 0 -2 -11 -9 -11 -10 -16 -3 -11 8 4 13 2 13 -6 0 -9 3 -9
10 2 7 11 10 11 10 2 0 -8 5 -10 13 -6 8 5 8 2 -2 -9 -8 -10 -9 -17 -3 -17 6
0 14 5 17 10 8 13 25 13 25 -1 0 -5 -4 -8 -8 -5 -5 3 -9 -1 -9 -9 0 -10 4 -12
12 -5 7 5 16 6 20 2 5 -4 5 0 0 8 -4 8 2 5 14 -8 26 -26 28 -27 28 -7 0 8 -4
12 -9 9 -4 -3 -5 3 -1 12 6 16 8 15 16 -4 6 -12 14 -22 19 -22 5 0 6 4 3 10
-3 6 1 7 10 4 13 -5 13 -9 3 -23 -12 -14 -11 -14 4 -2 10 7 15 18 11 24 -4 6
4 8 20 5 16 -3 24 -1 20 5 -3 5 3 7 14 3 26 -8 71 32 51 46 -10 8 -10 9 2 5 8
-2 15 -9 15 -15 0 -19 15 -26 16 -6 1 10 1 22 0 26 0 4 7 4 16 1 11 -4 14 -3
9 5 -4 7 -3 12 3 12 5 0 12 -6 14 -12 3 -8 6 -6 6 5 1 14 5 16 20 7 20 -10 41
4 27 17 -3 4 -6 1 -6 -6 0 -7 -5 -9 -11 -5 -8 5 -6 10 5 16 9 5 14 13 11 19
-4 5 3 5 18 0 29 -11 48 3 40 28 -4 11 -1 10 10 -4 14 -19 16 -19 22 -3 4 10
12 15 19 12 6 -3 2 2 -9 11 -20 17 -20 17 4 10 18 -5 22 -4 17 6 -4 8 0 5 8
-5 9 -11 17 -15 17 -8 1 7 2 17 3 24 0 6 7 13 14 16 8 2 10 -2 5 -15 -4 -12 2
-9 21 10 14 16 24 33 21 38 -3 5 1 6 10 3 13 -5 13 -9 3 -23 -10 -13 -9 -13 8
2 11 9 23 15 26 12 3 -3 5 3 4 14 0 11 2 19 5 18 3 -1 14 5 24 13 11 8 16 10
12 3 -4 -6 -2 -15 4 -19 7 -4 9 -3 6 3 -4 6 0 16 7 22 11 10 16 8 21 -8 3 -12
10 -21 15 -21 4 0 11 -7 14 -16 5 -14 4 -15 -8 -5 -12 10 -14 9 -9 -8 3 -12 9
-18 14 -15 5 3 9 0 9 -7 0 -7 -9 -9 -22 -6 -21 6 -22 5 -5 -8 18 -13 18 -13 0
-18 -17 -5 -17 -5 0 -6 10 0 17 -7 14 -13 -2 -7 0 -21 5 -31 6 -12 5 -16 -3
-15 -6 2 -14 -3 -17 -11 -2 -8 0 -11 6 -7 5 3 12 -1 15 -9 4 -10 1 -12 -11 -8
-9 3 -14 3 -10 -2 4 -4 2 -15 -5 -24 -10 -14 -10 -14 4 -3 14 10 18 10 23 -3
3 -9 2 -14 -3 -11 -5 3 -12 -1 -15 -10 -9 -24 -7 -28 8 -15 11 9 16 9 22 0 4
-7 3 -10 -2 -6 -5 3 -18 -2 -29 -10 -20 -15 -20 -15 3 -10 l22 5 -22 -31 -22
-32 24 20 23 20 -11 -22 c-7 -12 -15 -23 -19 -25 -5 -3 -2 -3 5 -2 6 2 12 -1
12 -6 0 -6 -4 -10 -10 -10 -5 0 -10 -5 -10 -11 0 -5 3 -8 8 -5 4 2 13 -7 19
-21 12 -25 12 -25 -8 -7 -19 17 -20 17 -13 -1 6 -14 4 -16 -6 -10 -9 5 -11 4
-6 -4 4 -6 11 -9 16 -6 4 3 7 -3 5 -12 -1 -10 1 -25 5 -33 4 -8 3 -24 -1 -35
-9 -18 -9 -18 -5 3 2 12 0 20 -5 17 -5 -4 -8 -17 -7 -31 2 -17 7 -23 18 -19 9
3 7 -1 -4 -10 -11 -8 -15 -15 -9 -15 6 0 14 -7 17 -16 3 -8 2 -13 -3 -10 -5 3
-12 -1 -15 -10 -4 -11 1 -18 14 -21 11 -3 20 -10 20 -15 0 -5 5 -6 12 -2 6 4
8 3 4 -4 -3 -6 -2 -14 4 -17 8 -5 7 -11 -1 -21 -10 -12 -9 -13 4 -8 23 9 41
-4 27 -21 -7 -9 -6 -16 7 -26 9 -8 14 -9 11 -4 -4 6 -3 17 3 25 7 12 9 10 9
-9 0 -18 4 -22 20 -18 17 4 18 2 9 -14 -5 -10 -8 -19 -7 -20 30 -8 38 -6 28 6
-8 10 -8 15 1 21 8 4 9 3 5 -4 -9 -15 6 -16 22 -2 9 7 9 7 2 -2 -5 -7 -10 -15
-10 -19 0 -3 87 -6 193 -6 179 -1 193 1 214 20 12 11 20 24 17 28 -2 4 4 6 16
4 11 -2 23 1 26 7 4 7 2 8 -4 4 -7 -4 -12 -2 -12 3 0 6 7 12 15 12 31 3 35 4
35 12 0 4 0 10 0 13 0 4 -8 0 -17 -7 -13 -11 -15 -11 -9 -1 4 7 19 17 32 23
22 8 23 11 13 31 -11 21 -11 22 5 9 14 -12 16 -12 9 4 -5 14 -3 17 9 12 11 -4
15 0 13 11 -1 9 3 21 9 25 7 6 4 7 -6 3 -12 -3 -18 0 -18 9 0 8 5 14 11 13 6
-2 14 3 16 10 3 6 0 12 -7 12 -6 0 -8 -4 -5 -10 3 -6 -1 -7 -10 -4 -14 6 -14
8 2 21 10 8 13 12 7 9 -7 -3 -14 1 -17 9 -4 9 -1 12 9 8 10 -4 12 0 8 11 -3 9
-1 22 4 29 6 7 7 18 2 26 -4 8 -6 21 -2 30 3 9 2 13 -2 9 -12 -10 -14 -42 -3
-49 5 -4 0 -12 -13 -19 -18 -10 -21 -10 -14 1 4 8 9 27 11 44 1 16 7 31 12 33
6 2 9 8 5 13 -3 5 -2 15 3 22 11 18 13 38 2 31 -14 -8 -11 20 4 35 9 11 9 13
0 7 -7 -4 -13 -2 -13 4 0 6 -4 9 -9 5 -5 -3 -13 -1 -16 5 -4 6 -3 10 2 9 21
-4 43 2 43 12 0 5 -4 7 -10 4 -5 -3 -10 -1 -10 5 0 7 -7 9 -16 6 -13 -5 -14
-3 -7 6 6 7 9 21 8 30 -2 10 1 20 5 23 5 3 7 -4 5 -15 -2 -11 1 -20 6 -20 6 0
7 -5 3 -12 -4 -7 -3 -8 4 -4 9 5 9 13 2 27 -6 10 -7 19 -3 19 4 0 0 7 -10 14
-16 12 -16 14 -2 20 9 3 13 2 10 -4 -3 -6 -1 -10 5 -10 7 0 10 6 7 13 -2 6
-13 11 -25 11 -12 -1 -19 3 -16 7 3 5 12 9 19 9 9 0 12 6 9 15 -4 8 -11 12
-17 8 -6 -3 -7 -1 -3 6 4 6 11 9 16 6 5 -3 12 0 16 6 4 8 3 9 -4 5 -8 -5 -12
2 -12 19 0 14 -4 24 -9 20 -5 -3 -13 -1 -16 5 -4 6 -3 10 2 9 4 -1 17 -1 27 0
19 1 19 2 2 14 -16 12 -15 13 11 11 17 -1 42 -13 56 -28 14 -14 32 -26 39 -26
7 1 2 7 -12 15 -24 13 -24 14 -2 12 12 -1 24 -8 27 -17 3 -8 14 -21 26 -28 12
-8 18 -9 14 -3 -3 6 -1 11 6 11 6 0 9 -8 6 -19 -3 -13 0 -18 8 -15 6 3 17 -2
24 -10 7 -8 18 -13 26 -10 7 3 16 0 21 -7 5 -8 3 -10 -6 -4 -9 5 -11 4 -6 -3
5 -8 13 -9 24 -3 23 12 64 -15 43 -29 -10 -5 -3 -7 21 -5 24 2 35 -1 35 -11 0
-10 -4 -11 -12 -4 -9 7 -14 6 -18 -3 -5 -14 26 -17 39 -4 4 4 12 7 18 7 6 0 4
-5 -4 -10 -11 -7 -11 -10 -2 -10 8 0 10 -5 6 -12 -4 -7 3 -4 16 7 l23 20 -11
-21 c-9 -16 -8 -21 3 -21 8 0 12 4 9 8 -2 4 0 10 5 13 6 4 8 -7 6 -26 -3 -21
-1 -28 4 -19 10 15 51 6 51 -12 0 -7 4 -6 10 3 7 12 10 12 10 1 0 -8 6 -11 16
-7 8 3 13 2 10 -2 -2 -4 -1 -14 5 -22 7 -12 9 -12 9 3 0 10 5 15 10 12 6 -4 8
-10 6 -14 -3 -4 1 -8 9 -8 18 0 19 9 3 27 -7 8 -3 6 9 -4 13 -10 20 -23 16
-29 -3 -6 -1 -7 6 -3 6 4 8 12 5 18 -4 6 -1 9 7 6 8 -3 13 -14 11 -24 -2 -15
-1 -16 7 -4 5 8 7 18 5 22 -3 4 2 8 10 8 8 0 17 -8 19 -18 4 -16 5 -16 6 1 1
11 6 16 14 12 6 -4 3 1 -8 11 l-20 17 20 -8 c11 -4 31 -9 45 -11 18 -3 21 -2
10 5 -8 5 -17 8 -21 5 -4 -2 -10 0 -14 5 -3 6 4 8 16 6 16 -3 20 0 15 13 -5
13 -2 13 10 -3 16 -20 16 -20 11 1 -4 18 -1 22 19 19 20 -2 22 0 13 17 -9 17
-8 18 10 9 14 -8 22 -8 27 1 4 6 3 8 -4 4 -6 -3 -13 -2 -17 4 -3 5 2 10 12 10
15 0 16 2 3 10 -13 9 -7 14 13 11 4 0 7 4 7 10 0 5 5 7 12 3 7 -4 8 -3 4 5 -4
6 -12 9 -17 6 -5 -4 -9 -1 -9 6 0 7 8 9 21 6 17 -4 19 -3 10 6 -6 6 -11 18
-10 26 0 11 2 12 6 3 2 -6 9 -10 14 -6 5 3 4 14 -3 27 -10 20 -10 21 5 8 15
-12 17 -11 17 3 0 9 5 16 11 16 7 0 9 9 6 21 -4 14 -2 19 8 15 7 -2 16 2 19
10 3 9 1 12 -4 9 -6 -3 -10 -1 -10 4 0 6 5 11 11 11 5 0 7 4 4 10 -8 14 8 13
22 -1 9 -9 11 -8 9 4 -1 9 -6 20 -11 24 -4 5 -5 1 0 -7 5 -8 4 -12 0 -7 -18
16 -13 35 8 32 20 -4 21 -3 5 9 -25 19 -22 27 5 17 22 -9 23 -7 23 29 -1 22
-6 44 -13 51 -9 9 -11 8 -9 -4 1 -9 5 -20 9 -23 12 -12 8 -26 -5 -18 -9 5 -9
2 1 -9 9 -11 10 -17 2 -17 -6 0 -11 5 -11 11 0 5 -6 7 -12 3 -10 -6 -10 -4 0
7 6 7 12 17 12 22 0 4 -6 5 -12 1 -10 -6 -10 -5 -1 8 7 8 10 18 6 21 -9 10 18
38 30 30 6 -3 7 -1 3 6 -6 9 -11 9 -22 0 -8 -6 -16 -10 -17 -8 -1 2 -9 13 -17
24 -12 17 -12 18 0 8 23 -21 32 -15 15 10 -8 13 -13 26 -10 29 3 3 -1 8 -10
12 -9 3 -14 2 -11 -2 3 -5 -1 -9 -9 -9 -12 0 -12 4 2 20 10 11 12 17 6 13 -8
-4 -13 -2 -13 5 0 7 -8 9 -21 6 -14 -4 -19 -1 -16 7 3 7 -5 18 -16 26 -20 12
-21 12 -9 -3 10 -12 10 -17 1 -23 -8 -4 -9 -3 -5 4 4 7 2 12 -5 12 -6 0 -9 8
-7 18 4 13 -1 18 -16 18 -12 0 -25 -5 -29 -10 -5 -7 -7 -3 -5 8 2 13 -4 20
-22 23 -14 2 -27 8 -28 13 -2 6 -9 7 -15 3 -7 -4 -6 1 2 10 13 16 2 25 -13 10
-10 -11 -37 -12 -30 -2 3 5 -3 9 -13 9 -15 0 -16 2 -3 10 14 9 7 12 -16 9 -4
0 -11 5 -15 13 -7 11 -11 10 -20 -2 -8 -12 -9 -10 -4 8 4 13 2 23 -4 23 -35 4
-71 20 -71 30 0 6 5 7 12 3 7 -4 8 -3 4 5 -6 9 -11 9 -24 -1 -13 -11 -15 -10
-9 5 4 10 3 16 -2 13 -4 -3 -16 1 -27 8 -10 8 -25 11 -33 8 -9 -3 -12 -1 -7 6
9 15 -33 27 -47 13 -6 -6 -15 -11 -19 -11 -4 0 1 9 12 20 11 11 20 25 20 31 0
6 -8 3 -17 -8 -10 -10 -14 -13 -9 -5 10 13 -10 35 -24 27 -4 -2 -7 2 -7 10 0
11 4 12 14 3 19 -16 28 -2 12 19 -13 16 -12 17 3 5 11 -9 18 -10 23 -2 3 5 11
10 18 10 6 0 2 -7 -9 -16 -18 -14 -18 -15 4 -4 12 6 27 8 32 5 6 -3 7 1 4 9
-4 10 0 16 10 17 9 1 22 2 29 3 6 1 11 12 11 26 -2 23 -1 23 12 5 12 -17 14
-17 14 -2 0 9 7 17 16 17 8 0 13 4 9 9 -3 5 0 13 6 17 8 4 9 3 5 -4 -4 -7 -2
-12 3 -12 11 0 15 15 12 34 -1 5 4 5 11 -1 24 -19 47 -23 41 -8 -3 8 -10 12
-16 8 -6 -3 -7 -1 -3 6 4 6 11 9 16 6 4 -3 10 2 14 10 3 8 11 15 18 15 10 0 9
-3 -1 -9 -10 -7 -7 -9 12 -8 14 1 25 4 25 7 0 3 0 16 1 30 2 25 2 25 11 3 5
-13 12 -23 14 -23 3 0 3 6 0 14 -7 18 12 30 22 15 5 -8 3 -9 -6 -4 -9 5 -11 4
-6 -4 13 -21 27 -1 14 22 -10 20 -10 21 5 8 12 -9 17 -10 17 -2 0 7 5 9 10 6
6 -3 10 -1 10 4 0 6 5 11 11 11 5 0 7 -5 3 -12 -4 -7 -3 -8 5 -4 6 4 8 12 5
18 -5 7 -1 9 9 5 9 -3 21 1 29 11 12 15 11 16 -4 4 -12 -10 -18 -10 -24 -1 -4
7 -3 9 4 5 6 -3 14 -2 17 4 5 8 11 8 20 0 9 -7 16 -6 25 5 7 8 17 12 24 8 8
-5 8 -3 0 8 -7 8 -8 22 -3 34 4 11 8 14 8 6 1 -11 4 -11 16 -1 8 7 15 18 15
24 0 6 -5 4 -10 -4 -5 -8 -10 -11 -10 -7 0 13 36 57 42 52 3 -3 5 1 5 9 0 9
-7 12 -16 9 -13 -5 -14 -3 -3 8 6 7 12 17 12 22 0 4 -6 5 -12 1 -10 -6 -10 -4
0 7 14 16 16 43 2 34 -5 -3 -10 -1 -10 4 0 6 3 11 8 11 12 0 34 -17 34 -25 0
-4 -6 -12 -14 -16 -10 -7 -10 -9 0 -9 7 0 10 -5 6 -12 -4 -6 -3 -8 2 -5 6 3
10 25 9 48 0 32 -4 43 -18 45 -9 1 -15 -2 -11 -7 3 -5 10 -7 15 -4 5 4 9 1 9
-4 0 -15 -15 -14 -29 2 -8 10 -7 17 2 27 10 10 8 12 -7 6 -20 -7 -20 -7 0 15
18 21 18 22 0 16 -14 -6 -17 -3 -12 8 3 8 1 15 -5 15 -5 0 -8 10 -6 23 2 12 2
16 0 10 -6 -17 -11 -16 -31 4 -16 16 -16 16 1 10 9 -3 17 -2 17 3 0 9 -14 14
-32 11 -5 0 -7 2 -7 7 4 21 -2 32 -13 26 -10 -5 -10 -4 -1 6 18 19 4 42 -21
34 -21 -6 -21 -6 -1 10 19 15 19 15 1 16 -15 0 -16 3 -6 15 7 9 10 18 6 22 -3
3 -6 0 -6 -7 0 -7 -9 -3 -20 10 -12 13 -19 29 -16 35 2 7 0 18 -6 26 -8 11 -9
10 -4 -3 3 -12 0 -18 -9 -18 -9 0 -12 8 -10 21 3 15 1 18 -8 11 -13 -11 -52
10 -40 21 3 4 0 7 -8 7 -12 0 -12 2 0 9 9 6 5 9 -14 9 -19 0 -23 -3 -14 -9 10
-6 7 -8 -8 -6 -12 0 -19 5 -17 9 3 4 -2 8 -11 8 -10 0 -13 5 -9 13 6 9 5 9 -8
0 -8 -7 -19 -9 -23 -5 -5 4 -6 3 -3 -3 4 -6 -15 -9 -49 -8 -49 2 -53 0 -37
-12 18 -13 17 -14 -5 -8 -20 5 -23 3 -18 -10 4 -11 2 -14 -9 -10 -8 3 -14 -1
-14 -8 0 -9 -3 -10 -8 -4 -11 16 -35 18 -29 2 3 -8 2 -19 -3 -26 -5 -10 -9 -9
-13 4 -5 10 -3 14 5 9 7 -4 8 -3 4 5 -11 16 -26 4 -26 -22 0 -18 -2 -19 -10
-7 -8 13 -11 13 -22 1 -11 -11 -11 -13 1 -6 9 5 12 4 7 -3 -4 -6 -14 -8 -23
-5 -12 5 -14 3 -8 -8 7 -11 5 -11 -10 1 -15 12 -17 12 -10 1 6 -11 4 -13 -10
-7 -16 6 -16 4 -4 -11 8 -9 9 -14 2 -10 -6 4 -13 2 -15 -5 -2 -6 -14 -13 -26
-14 -16 -3 -20 0 -16 14 5 14 4 15 -5 2 -6 -8 -8 -24 -5 -35 6 -19 5 -19 -8
-2 -14 18 -14 18 -29 0 -13 -17 -13 -17 6 -3 19 14 19 14 6 -2 -7 -10 -17 -15
-22 -12 -5 3 -9 -2 -9 -11 0 -9 -5 -13 -10 -10 -6 4 -8 10 -6 14 3 4 -1 8 -8
8 -8 0 -11 -8 -9 -17 3 -10 -3 -20 -13 -24 -14 -5 -15 -4 -5 8 8 10 9 16 1 21
-6 4 -9 1 -8 -7 2 -7 -3 -12 -10 -10 -10 2 -10 -2 -1 -20 l12 -23 -22 19 c-18
17 -21 17 -15 3 3 -9 2 -17 -4 -17 -6 0 -12 5 -14 10 -2 6 -9 1 -15 -10 -11
-17 -10 -19 5 -14 14 5 14 4 2 -4 -10 -8 -19 -7 -29 1 -12 10 -13 9 -2 -10 9
-19 9 -22 -3 -17 -8 3 -17 12 -20 20 -6 17 -26 10 -26 -9 0 -7 4 -6 10 3 5 8
10 10 10 4 0 -6 -7 -17 -16 -24 -8 -8 -14 -9 -13 -4 5 28 -2 55 -13 48 -8 -4
-10 -3 -5 2 5 5 13 9 19 9 14 0 19 33 7 41 -6 4 -6 11 1 19 8 9 8 15 0 20 -5
3 -10 20 -10 36 0 18 -4 28 -10 24 -6 -4 -2 9 9 28 11 19 17 37 15 40 -3 3 -7
13 -8 22 -1 9 -8 20 -15 24 -10 6 -9 10 4 14 9 4 13 3 10 -3 -3 -6 -1 -10 5
-10 7 0 10 6 7 13 -2 6 -13 11 -25 11 -12 -1 -19 3 -16 7 3 5 12 9 20 9 8 0
12 5 9 10 -4 6 -2 17 5 25 7 8 7 15 1 19 -5 3 -8 14 -6 24 4 25 -14 54 -28 45
-9 -5 -9 -3 -1 8 6 8 10 22 9 31 -2 10 1 20 5 23 5 3 7 -4 5 -15 -2 -11 2 -20
8 -20 7 0 6 -4 -3 -10 -9 -6 -10 -10 -3 -10 17 0 23 14 13 30 -5 9 -4 20 3 29
9 12 9 13 0 7 -8 -4 -13 -1 -13 9 0 10 5 14 13 10 6 -4 1 3 -12 14 -13 12 -21
24 -18 28 4 3 1 13 -6 21 -9 13 -9 14 1 8 17 -10 15 2 -3 20 -8 9 -15 24 -15
35 0 10 -6 19 -14 19 -7 0 -20 8 -27 17 -10 11 -10 14 -1 9 6 -4 12 -3 12 2 0
6 -7 12 -15 16 -8 3 -15 0 -15 -6 0 -6 -3 -8 -7 -4 -5 4 1 14 11 22 22 15 10
19 -14 4 -9 -5 -19 -5 -27 1 -7 6 -18 7 -24 3 -8 -4 -9 -3 -5 4 10 16 33 15
39 0 3 -7 5 -3 4 8 -1 21 -4 22 -236 23 -220 2 -233 1 -220 -15z m-131 -234
c0 -5 -5 -10 -11 -10 -5 0 -7 5 -4 10 3 6 8 10 11 10 2 0 4 -4 4 -10z m707
-137 c-4 -3 -2 -12 3 -18 7 -9 6 -16 -5 -25 -10 -9 -15 -9 -15 -1 0 6 5 11 11
11 8 0 9 4 0 13 -10 12 -6 27 7 27 3 0 2 -3 -1 -7z m-1391 -125 c4 -7 3 -8 -4
-4 -7 4 -12 2 -12 -5 0 -7 -3 -10 -6 -6 -6 5 3 27 11 27 2 0 7 -5 11 -12z
m1390 -15 c-2 -10 1 -21 7 -24 5 -4 0 -12 -13 -19 -18 -10 -21 -10 -14 2 5 7
9 21 10 31 2 23 3 27 8 27 2 0 3 -8 2 -17z m8 -164 c-3 -5 -10 -7 -15 -3 -5 3
-7 10 -3 15 3 5 10 7 15 3 5 -3 7 -10 3 -15z m-964 1 c0 -5 -5 -10 -11 -10 -5
0 -7 5 -4 10 3 6 8 10 11 10 2 0 4 -4 4 -10z m1840 -14 c0 -2 -7 -7 -16 -10
-8 -3 -12 -2 -9 4 6 10 25 14 25 6z m-2496 -21 c-4 -8 -11 -15 -16 -15 -6 0
-5 6 2 15 7 8 14 15 16 15 2 0 1 -7 -2 -15z m1622 -7 c1 -11 -3 -15 -13 -11
-11 4 -12 8 -2 13 8 6 6 10 -7 13 -19 6 -19 6 0 4 11 -1 20 -10 22 -19z
m-1695 -292 c5 3 9 0 9 -6 0 -15 -23 -7 -26 8 -1 7 0 8 3 2 2 -5 9 -8 14 -4z
m2588 -112 c-6 -8 -15 -12 -18 -8 -3 4 0 9 7 11 6 3 9 10 6 15 -4 7 -2 8 5 4
9 -6 9 -11 0 -22z m-396 -217 c3 -8 -1 -14 -8 -14 -7 0 -11 6 -8 14 3 7 6 13
8 13 2 0 5 -6 8 -13z m-17 -169 c4 -7 3 -8 -4 -4 -7 4 -12 2 -12 -5 0 -7 -3
-10 -6 -6 -6 5 3 27 11 27 2 0 7 -5 11 -12z m114 -68 c0 -5 -5 -10 -11 -10 -5
0 -7 5 -4 10 3 6 8 10 11 10 2 0 4 -4 4 -10z m-1976 -32 c-2 -3 -13 -6 -24 -5
-24 2 -18 13 9 13 11 0 18 -4 15 -8z m1466 -482 c0 -3 -4 -8 -10 -11 -5 -3
-10 -1 -10 4 0 6 5 11 10 11 6 0 10 -2 10 -4z m150 -92 c0 -8 -19 -13 -24 -6
-3 5 1 9 9 9 8 0 15 -2 15 -3z m-1280 -54 c0 -5 -2 -10 -4 -10 -3 0 -8 5 -11
10 -3 6 -1 10 4 10 6 0 11 -4 11 -10z m-193 -107 c-14 -14 -19 -15 -29 -4 -11
10 -10 11 3 6 10 -4 20 -2 24 4 3 6 9 11 13 11 3 0 -1 -8 -11 -17z m1237 -94
c-3 -5 -10 -7 -15 -3 -5 3 -7 10 -3 15 3 5 10 7 15 3 5 -3 7 -10 3 -15z m-20
-17 c3 -5 -1 -9 -9 -9 -8 0 -12 4 -9 9 3 4 7 8 9 8 2 0 6 -4 9 -8z m16 -237
c0 -7 -30 -13 -34 -7 -3 4 4 9 15 9 10 1 19 0 19 -2z m-144 -147 c-3 -22 -17
-39 -27 -32 -6 4 -3 14 7 25 20 22 23 23 20 7z m-302 -28 c-6 -6 -10 -3 -10
10 0 13 4 16 10 10 7 -7 7 -13 0 -20z m-60 4 c3 -8 2 -12 -4 -9 -6 3 -10 10
-10 16 0 14 7 11 14 -7z m150 8 c3 -5 -1 -9 -9 -9 -8 0 -12 4 -9 9 3 4 7 8 9
8 2 0 6 -4 9 -8z m123 -14 c-3 -8 -6 -5 -6 6 -1 11 2 17 5 13 3 -3 4 -12 1
-19z m40 6 c-3 -3 -12 -4 -19 -1 -8 3 -5 6 6 6 11 1 17 -2 13 -5z m-90 -10
c-3 -3 -12 -4 -19 -1 -8 3 -5 6 6 6 11 1 17 -2 13 -5z"/>
<path d="M1826 2872 c-3 -5 1 -9 9 -9 8 0 12 4 9 9 -3 4 -7 8 -9 8 -2 0 -6 -4
-9 -8z"/>
<path d="M1860 2821 c0 -6 4 -13 10 -16 6 -3 7 1 4 9 -7 18 -14 21 -14 7z"/>
<path d="M1893 2773 c-3 -10 -8 -21 -10 -25 -2 -4 2 -5 9 -3 8 3 14 14 14 25
0 25 -5 25 -13 3z"/>
<path d="M1146 2642 c-2 -4 -1 -14 4 -22 7 -11 9 -9 7 8 -1 24 -3 26 -11 14z"/>
<path d="M2350 2425 c0 -7 30 -13 34 -7 3 4 -4 9 -15 9 -10 1 -19 0 -19 -2z"/>
<path d="M2645 2421 c-3 -5 -2 -12 3 -15 5 -3 9 1 9 9 0 17 -3 19 -12 6z"/>
<path d="M1896 2353 c-6 -14 -5 -15 5 -6 7 7 10 15 7 18 -3 3 -9 -2 -12 -12z"/>
<path d="M303 2323 c-3 -10 -8 -22 -11 -28 -3 -5 4 -2 16 9 12 10 19 23 16 27
-8 13 -14 11 -21 -8z"/>
<path d="M1148 2333 c7 -3 16 -2 19 1 4 3 -2 6 -13 5 -11 0 -14 -3 -6 -6z"/>
<path d="M2790 2231 c0 -6 4 -13 10 -16 6 -3 7 1 4 9 -7 18 -14 21 -14 7z"/>
<path d="M541 1646 c-9 -11 -9 -16 1 -22 7 -4 10 -4 6 1 -4 4 -3 14 3 22 6 7
9 13 6 13 -2 0 -10 -6 -16 -14z"/>
<path d="M640 1430 c-9 -6 -10 -10 -3 -10 6 0 15 5 18 10 8 12 4 12 -15 0z"/>
<path d="M2580 1321 c0 -6 4 -13 10 -16 6 -3 7 1 4 9 -7 18 -14 21 -14 7z"/>
<path d="M160 960 c11 -7 11 -10 2 -10 -7 0 -10 -5 -6 -11 4 -8 9 -7 15 2 9
15 3 29 -14 29 -7 0 -6 -4 3 -10z"/>
<path d="M1146 722 c-2 -4 -1 -14 4 -22 7 -11 9 -9 7 8 -1 24 -3 26 -11 14z"/>
<path d="M2170 710 c0 -5 5 -10 11 -10 5 0 7 5 4 10 -3 6 -8 10 -11 10 -2 0
-4 -4 -4 -10z"/>
<path d="M2400 566 c0 -2 7 -7 16 -10 8 -3 12 -2 9 4 -6 10 -25 14 -25 6z"/>
<path d="M1143 371 c0 -11 5 -18 9 -15 4 3 5 11 1 19 -7 21 -12 19 -10 -4z"/>
<path d="M1190 170 c0 -5 5 -10 11 -10 5 0 7 5 4 10 -3 6 -8 10 -11 10 -2 0
-4 -4 -4 -10z"/>
</g>
</svg>
