<?xml version="1.0" encoding="utf-8"?>
<!-- Generator: Adobe Illustrator 21.0.2, SVG Export Plug-In . SVG Version: 6.00 Build 0)  -->
<svg version="1.1" id="Layer_1" xmlns="http://www.w3.org/2000/svg" xmlns:xlink="http://www.w3.org/1999/xlink" x="0px" y="0px"
	 viewBox="0 0 227.1 23.2" style="enable-background:new 0 0 227.1 23.2;" xml:space="preserve">
<style type="text/css">
	.st0{enable-background:new    ;}
	.st1{fill:#1D1D1B;}
</style>
<title>near-perfection-logo</title>
<g class="st0">
	<path class="st1" d="M11.7,8c-0.8-1-1.8-1.4-3.3-1.4C7,6.6,5.8,7.1,4.9,8.1S3.5,10.4,3.5,12v10.3H0.5V4.2h3.1v1.7
		C4.3,5.2,5.1,4.6,6,4.3C7,3.9,7.9,3.8,8.8,3.8c2,0,3.7,0.7,5,2.1c1.3,1.4,2,3.3,2,5.8v10.7h-3.1V12C12.8,10.3,12.4,9,11.7,8z"/>
	<path class="st1" d="M26.6,8.3c1.9,0,3.5,0.5,4.7,1.6s1.9,2.4,1.9,4.1l0,0.1l-10.1,4.2c0.9,1.1,2.1,1.7,3.7,1.7
		c1.6,0,2.8-0.6,3.8-1.8l1.7,1.9c-1.6,1.7-3.6,2.5-5.8,2.5c-2,0-3.6-0.7-5-2c-1.4-1.3-2.1-3-2.1-5.1c0-1.5,0.4-2.8,1.1-3.9
		c0.7-1.1,1.6-1.9,2.7-2.5C24.3,8.6,25.4,8.3,26.6,8.3z M22.2,15.5c0,0.2,0,0.4,0,0.5l7.7-3.3c-0.6-1.1-1.6-1.7-3.1-1.7
		c-1.1,0-2.2,0.4-3.1,1.2C22.7,13,22.2,14.1,22.2,15.5z"/>
	<path class="st1" d="M37.3,20.6c-1.3-1.3-1.9-3.1-1.9-5.2s0.7-3.9,2-5.1c1.3-1.3,2.9-1.9,4.7-1.9s3.3,0.9,4.5,2.6V8.5h2.9v13.8
		h-2.9v-2.3c-0.6,0.8-1.3,1.4-2.1,1.8s-1.7,0.6-2.6,0.6C40.1,22.5,38.6,21.9,37.3,20.6z M38.2,15.5c0,1.3,0.4,2.4,1.3,3.2
		c0.8,0.8,1.8,1.2,3,1.2s2.1-0.4,2.9-1.3c0.8-0.8,1.2-1.9,1.2-3.2c0-1.3-0.4-2.4-1.2-3.3c-0.8-0.9-1.8-1.3-2.9-1.3
		c-1.2,0-2.2,0.4-3,1.3S38.2,14.2,38.2,15.5z"/>
	<path class="st1" d="M60.9,11.2c-1.4,0-2.5,0.5-3.2,1.4c-0.7,0.9-1.1,2.2-1.1,3.8v5.9h-2.9V8.5h2.9v2.8c0.5-0.9,1.1-1.6,1.9-2.1
		c0.8-0.6,1.7-0.8,2.6-0.9l0,2.9C61,11.2,61,11.2,60.9,11.2z"/>
	<path class="st1" d="M83.8,5.8c1.3,1.1,1.9,2.7,1.9,4.9c0,2.2-0.6,3.8-1.9,4.8c-1.3,1-3.3,1.5-5.9,1.5h-3.2v5.3h-3.1V4.2h6.2
		C80.5,4.2,82.5,4.7,83.8,5.8z M81.6,13.3c0.6-0.7,0.9-1.6,0.9-2.9c0-1.3-0.4-2.1-1.2-2.7c-0.8-0.5-2-0.8-3.7-0.8h-3.1v7.3h3.6
		C79.9,14.2,81,13.9,81.6,13.3z"/>
	<path class="st1" d="M95.2,8.3c1.9,0,3.5,0.5,4.7,1.6s1.9,2.4,1.9,4.1l0,0.1l-10.1,4.2c0.9,1.1,2.1,1.7,3.7,1.7
		c1.6,0,2.8-0.6,3.8-1.8L101,20c-1.6,1.7-3.6,2.5-5.8,2.5c-2,0-3.6-0.7-5-2c-1.4-1.3-2.1-3-2.1-5.1c0-1.5,0.4-2.8,1.1-3.9
		c0.7-1.1,1.6-1.9,2.7-2.5C92.9,8.6,94,8.3,95.2,8.3z M90.8,15.5c0,0.2,0,0.4,0,0.5l7.7-3.3c-0.6-1.1-1.6-1.7-3.1-1.7
		c-1.1,0-2.2,0.4-3.1,1.2C91.3,13,90.8,14.1,90.8,15.5z"/>
	<path class="st1" d="M112.1,11.2c-1.4,0-2.5,0.5-3.2,1.4c-0.7,0.9-1.1,2.2-1.1,3.8v5.9h-2.9V8.5h2.9v2.8c0.5-0.9,1.1-1.6,1.9-2.1
		c0.8-0.6,1.7-0.8,2.6-0.9l0,2.9C112.2,11.2,112.1,11.2,112.1,11.2z"/>
	<path class="st1" d="M118.1,8.4v2.4h3.6v2.3h-3.6v9.2h-2.9V8.5c0-1.5,0.5-2.7,1.4-3.5c0.9-0.8,2.1-1.3,3.6-1.3s2.7,0.5,3.7,1.4
		l-1.2,2.3c-0.6-0.7-1.4-1-2.4-1C118.8,6.4,118.1,7.1,118.1,8.4z"/>
	<path class="st1" d="M131.1,8.3c1.9,0,3.5,0.5,4.7,1.6s1.9,2.4,1.9,4.1l0,0.1l-10.1,4.2c0.9,1.1,2.1,1.7,3.7,1.7
		c1.6,0,2.8-0.6,3.8-1.8l1.7,1.9c-1.6,1.7-3.6,2.5-5.8,2.5c-2,0-3.6-0.7-5-2c-1.4-1.3-2.1-3-2.1-5.1c0-1.5,0.4-2.8,1.1-3.9
		c0.7-1.1,1.6-1.9,2.7-2.5C128.7,8.6,129.9,8.3,131.1,8.3z M126.7,15.5c0,0.2,0,0.4,0,0.5l7.7-3.3c-0.6-1.1-1.6-1.7-3.1-1.7
		c-1.1,0-2.2,0.4-3.1,1.2C127.1,13,126.7,14.1,126.7,15.5z"/>
	<path class="st1" d="M146.8,22.5c-1.9,0-3.6-0.7-5-2s-2.1-3-2.1-5.1c0-2.1,0.7-3.8,2.2-5.2s3.2-2,5.3-2s3.8,0.7,5.3,2.2l-1.7,2.1
		c-1.2-1-2.4-1.6-3.6-1.6c-1.2,0-2.3,0.4-3.2,1.2s-1.3,1.8-1.3,3.1c0,1.3,0.4,2.4,1.3,3.2c0.9,0.9,2,1.3,3.3,1.3s2.5-0.6,3.7-1.8
		l1.7,1.9C151,21.7,149,22.5,146.8,22.5z"/>
	<path class="st1" d="M158.4,10.8v7c0,0.7,0.2,1.2,0.5,1.6c0.3,0.4,0.8,0.6,1.5,0.6s1.2-0.3,1.8-0.9l1.2,2.1c-1,0.9-2.2,1.4-3.4,1.4
		s-2.3-0.4-3.2-1.3c-0.9-0.9-1.3-2-1.3-3.5V4.2h2.9v4.3h3.6v2.3H158.4z"/>
	<path class="st1" d="M165.9,5.8c-0.4-0.4-0.5-0.8-0.5-1.3s0.2-0.9,0.5-1.3c0.4-0.4,0.8-0.5,1.3-0.5c0.5,0,0.9,0.2,1.3,0.5
		c0.4,0.4,0.5,0.8,0.5,1.3s-0.2,0.9-0.5,1.3s-0.8,0.5-1.3,0.5C166.7,6.3,166.3,6.1,165.9,5.8z M168.6,22.3h-2.9V8.5h2.9V22.3z"/>
	<path class="st1" d="M184.4,20.5c-1.4,1.4-3.1,2.1-5.2,2.1s-3.8-0.7-5.2-2.1s-2.1-3.1-2.1-5.1s0.7-3.7,2.1-5.1s3.1-2.1,5.2-2.1
		s3.8,0.7,5.2,2.1s2.1,3.1,2.1,5.1S185.8,19.1,184.4,20.5z M176.1,18.7c0.8,0.8,1.9,1.3,3.1,1.3c1.3,0,2.3-0.4,3.1-1.3
		c0.8-0.8,1.2-1.9,1.2-3.3s-0.4-2.4-1.2-3.3s-1.9-1.3-3.1-1.3c-1.3,0-2.3,0.4-3.1,1.3s-1.2,1.9-1.2,3.3S175.2,17.8,176.1,18.7z"/>
	<path class="st1" d="M192.7,14.9v7.5h-2.9V8.5h2.9V11c0.5-0.8,1.1-1.5,1.9-2s1.7-0.7,2.7-0.7c1.6,0,2.8,0.5,3.8,1.4
		c1,1,1.4,2.3,1.4,4.1v8.5h-2.9v-7.6c0-2.5-1.1-3.8-3.2-3.8c-1,0-1.9,0.3-2.6,1C193.1,12.6,192.7,13.6,192.7,14.9z"/>
</g>
<path class="st1" d="M224.4,17.2l-3.7-0.5c-0.6-0.1-1.1,0.1-1.5,0.6l-2.5,2.8c-0.6,0.7-1.7,0.8-2.4,0.2c-0.3-0.3-0.5-0.6-0.6-1
	l-0.7-3.7c-0.1-0.6-0.5-1-1-1.3l-3.4-1.5c-0.9-0.4-1.3-1.4-0.9-2.3c0.2-0.4,0.4-0.6,0.8-0.8l3.3-1.8c0.5-0.3,0.8-0.8,0.9-1.3
	l0.4-3.8c0.1-0.9,0.9-1.6,1.9-1.5c0.4,0,0.7,0.2,1,0.5l2.7,2.6c0.4,0.4,1,0.5,1.5,0.4l3.7-0.8c0.9-0.2,1.8,0.4,2,1.3
	c0.1,0.4,0,0.8-0.1,1.1l-1.6,3.4c-0.2,0.5-0.2,1.1,0.1,1.6l1.9,3.3c0.5,0.8,0.2,1.9-0.6,2.4C225.2,17.2,224.8,17.3,224.4,17.2z"/>
</svg>
