<svg id="Layer_1" data-name="Layer 1" xmlns="http://www.w3.org/2000/svg" viewBox="0 0 227.11 23.21"><defs><style>.cls-1{font-size:26px;font-family:MontserratAlternates-Regular, Montserrat Alternates;}.cls-1,.cls-2{fill:#1d1d1b;}</style></defs><title>near-perfection-logo</title><text class="cls-1" transform="translate(-2.04 22.34)">Near Perfection </text><path class="cls-2" d="M224.44,17.22l-3.74-.49a1.72,1.72,0,0,0-1.5.56l-2.52,2.8a1.72,1.72,0,0,1-3-.84L213,15.55a1.72,1.72,0,0,0-1-1.26l-3.45-1.53a1.72,1.72,0,0,1-.12-3.09l3.31-1.8a1.72,1.72,0,0,0,.89-1.33L213,2.78a1.72,1.72,0,0,1,2.9-1.07l2.74,2.59a1.72,1.72,0,0,0,1.54.43l3.69-.79a1.72,1.72,0,0,1,1.91,2.42L224.2,9.78a1.72,1.72,0,0,0,.06,1.6l1.89,3.26A1.72,1.72,0,0,1,224.44,17.22Z"/></svg>