<svg version="1.1" id="Layer_1" xmlns="http://www.w3.org/2000/svg" x="0" y="0" viewBox="0 0 227.1 23.2" xml:space="preserve"><style type="text/css">.st0{enable-background:new}.st1{fill:#1d1d1b}</style><title>near-perfection-logo</title><g class="st0"><path class="st1" d="M11.7 8c-.8-1-1.8-1.4-3.3-1.4-1.4 0-2.6.5-3.5 1.5S3.5 10.4 3.5 12v10.3h-3V4.2h3.1v1.7c.7-.7 1.5-1.3 2.4-1.6 1-.4 1.9-.5 2.8-.5 2 0 3.7.7 5 2.1 1.3 1.4 2 3.3 2 5.8v10.7h-3.1V12c.1-1.7-.3-3-1-4zM26.6 8.3c1.9 0 3.5.5 4.7 1.6s1.9 2.4 1.9 4.1v.1l-10.1 4.2c.9 1.1 2.1 1.7 3.7 1.7s2.8-.6 3.8-1.8l1.7 1.9c-1.6 1.7-3.6 2.5-5.8 2.5-2 0-3.6-.7-5-2s-2.1-3-2.1-5.1c0-1.5.4-2.8 1.1-3.9.7-1.1 1.6-1.9 2.7-2.5 1.1-.5 2.2-.8 3.4-.8zm-4.4 7.2v.5l7.7-3.3c-.6-1.1-1.6-1.7-3.1-1.7-1.1 0-2.2.4-3.1 1.2-1 .8-1.5 1.9-1.5 3.3zM37.3 20.6c-1.3-1.3-1.9-3.1-1.9-5.2s.7-3.9 2-5.1c1.3-1.3 2.9-1.9 4.7-1.9s3.3.9 4.5 2.6V8.5h2.9v13.8h-2.9V20c-.6.8-1.3 1.4-2.1 1.8s-1.7.6-2.6.6c-1.8.1-3.3-.5-4.6-1.8zm.9-5.1c0 1.3.4 2.4 1.3 3.2.8.8 1.8 1.2 3 1.2s2.1-.4 2.9-1.3c.8-.8 1.2-1.9 1.2-3.2 0-1.3-.4-2.4-1.2-3.3-.8-.9-1.8-1.3-2.9-1.3-1.2 0-2.2.4-3 1.3s-1.3 2.1-1.3 3.4zM60.9 11.2c-1.4 0-2.5.5-3.2 1.4-.7.9-1.1 2.2-1.1 3.8v5.9h-2.9V8.5h2.9v2.8c.5-.9 1.1-1.6 1.9-2.1.8-.6 1.7-.8 2.6-.9v2.9h-.2zM83.8 5.8c1.3 1.1 1.9 2.7 1.9 4.9s-.6 3.8-1.9 4.8c-1.3 1-3.3 1.5-5.9 1.5h-3.2v5.3h-3.1V4.2h6.2c2.7 0 4.7.5 6 1.6zm-2.2 7.5c.6-.7.9-1.6.9-2.9 0-1.3-.4-2.1-1.2-2.7-.8-.5-2-.8-3.7-.8h-3.1v7.3h3.6c1.8 0 2.9-.3 3.5-.9zM95.2 8.3c1.9 0 3.5.5 4.7 1.6s1.9 2.4 1.9 4.1v.1l-10.1 4.2c.9 1.1 2.1 1.7 3.7 1.7s2.8-.6 3.8-1.8L101 20c-1.6 1.7-3.6 2.5-5.8 2.5-2 0-3.6-.7-5-2s-2.1-3-2.1-5.1c0-1.5.4-2.8 1.1-3.9.7-1.1 1.6-1.9 2.7-2.5 1-.4 2.1-.7 3.3-.7zm-4.4 7.2v.5l7.7-3.3c-.6-1.1-1.6-1.7-3.1-1.7-1.1 0-2.2.4-3.1 1.2-1 .8-1.5 1.9-1.5 3.3zM112.1 11.2c-1.4 0-2.5.5-3.2 1.4-.7.9-1.1 2.2-1.1 3.8v5.9h-2.9V8.5h2.9v2.8c.5-.9 1.1-1.6 1.9-2.1.8-.6 1.7-.8 2.6-.9v2.9h-.2zM118.1 8.4v2.4h3.6v2.3h-3.6v9.2h-2.9V8.5c0-1.5.5-2.7 1.4-3.5.9-.8 2.1-1.3 3.6-1.3s2.7.5 3.7 1.4l-1.2 2.3c-.6-.7-1.4-1-2.4-1-1.5 0-2.2.7-2.2 2zM131.1 8.3c1.9 0 3.5.5 4.7 1.6s1.9 2.4 1.9 4.1v.1l-10.1 4.2c.9 1.1 2.1 1.7 3.7 1.7s2.8-.6 3.8-1.8l1.7 1.9c-1.6 1.7-3.6 2.5-5.8 2.5-2 0-3.6-.7-5-2s-2.1-3-2.1-5.1c0-1.5.4-2.8 1.1-3.9.7-1.1 1.6-1.9 2.7-2.5 1-.5 2.2-.8 3.4-.8zm-4.4 7.2v.5l7.7-3.3c-.6-1.1-1.6-1.7-3.1-1.7-1.1 0-2.2.4-3.1 1.2-1.1.8-1.5 1.9-1.5 3.3zM146.8 22.5c-1.9 0-3.6-.7-5-2s-2.1-3-2.1-5.1c0-2.1.7-3.8 2.2-5.2s3.2-2 5.3-2 3.8.7 5.3 2.2l-1.7 2.1c-1.2-1-2.4-1.6-3.6-1.6-1.2 0-2.3.4-3.2 1.2s-1.3 1.8-1.3 3.1.4 2.4 1.3 3.2c.9.9 2 1.3 3.3 1.3s2.5-.6 3.7-1.8l1.7 1.9c-1.7 1.9-3.7 2.7-5.9 2.7zM158.4 10.8v7c0 .7.2 1.2.5 1.6.3.4.8.6 1.5.6s1.2-.3 1.8-.9l1.2 2.1c-1 .9-2.2 1.4-3.4 1.4s-2.3-.4-3.2-1.3c-.9-.9-1.3-2-1.3-3.5V4.2h2.9v4.3h3.6v2.3h-3.6zM165.9 5.8c-.4-.4-.5-.8-.5-1.3s.2-.9.5-1.3c.4-.4.8-.5 1.3-.5s.9.2 1.3.5c.4.4.5.8.5 1.3s-.2.9-.5 1.3-.8.5-1.3.5-.9-.2-1.3-.5zm2.7 16.5h-2.9V8.5h2.9v13.8zM184.4 20.5c-1.4 1.4-3.1 2.1-5.2 2.1s-3.8-.7-5.2-2.1-2.1-3.1-2.1-5.1.7-3.7 2.1-5.1 3.1-2.1 5.2-2.1 3.8.7 5.2 2.1 2.1 3.1 2.1 5.1-.7 3.7-2.1 5.1zm-8.3-1.8c.8.8 1.9 1.3 3.1 1.3 1.3 0 2.3-.4 3.1-1.3.8-.8 1.2-1.9 1.2-3.3s-.4-2.4-1.2-3.3-1.9-1.3-3.1-1.3c-1.3 0-2.3.4-3.1 1.3s-1.2 1.9-1.2 3.3.3 2.4 1.2 3.3zM192.7 14.9v7.5h-2.9V8.5h2.9V11c.5-.8 1.1-1.5 1.9-2s1.7-.7 2.7-.7c1.6 0 2.8.5 3.8 1.4 1 1 1.4 2.3 1.4 4.1v8.5h-2.9v-7.6c0-2.5-1.1-3.8-3.2-3.8-1 0-1.9.3-2.6 1-.7.7-1.1 1.7-1.1 3z"/></g><path class="st1" d="M224.4 17.2l-3.7-.5c-.6-.1-1.1.1-1.5.6l-2.5 2.8c-.6.7-1.7.8-2.4.2-.3-.3-.5-.6-.6-1l-.7-3.7c-.1-.6-.5-1-1-1.3l-3.4-1.5c-.9-.4-1.3-1.4-.9-2.3.2-.4.4-.6.8-.8l3.3-1.8c.5-.3.8-.8.9-1.3l.4-3.8c.1-.9.9-1.6 1.9-1.5.4 0 .7.2 1 .5l2.7 2.6c.4.4 1 .5 1.5.4l3.7-.8c.9-.2 1.8.4 2 1.3.1.4 0 .8-.1 1.1l-1.6 3.4c-.2.5-.2 1.1.1 1.6l1.9 3.3c.5.8.2 1.9-.6 2.4-.4.1-.8.2-1.2.1z"/></svg>